<?xml version="1.0" encoding="utf-8"?>
<!-- Generator: Adobe Illustrator 21.0.0, SVG Export Plug-In . SVG Version: 6.00 Build 0)  -->
<svg version="1.1"
	 id="svg8" inkscape:version="0.92.1 r15371" sodipodi:docname="egress.svg" xmlns:cc="http://creativecommons.org/ns#" xmlns:dc="http://purl.org/dc/elements/1.1/" xmlns:inkscape="http://www.inkscape.org/namespaces/inkscape" xmlns:rdf="http://www.w3.org/1999/02/22-rdf-syntax-ns#" xmlns:sodipodi="http://sodipodi.sourceforge.net/DTD/sodipodi-0.dtd" xmlns:svg="http://www.w3.org/2000/svg"
	 xmlns="http://www.w3.org/2000/svg" xmlns:xlink="http://www.w3.org/1999/xlink" x="0px" y="0px" viewBox="0 0 595.3 617.9"
	 style="enable-background:new 0 0 595.3 617.9;" xml:space="preserve">
<style type="text/css">
	.st0{fill:#C4C4C4;}
	.st1{fill:#A9A9A9;}
	.st2{fill:#A9A9A9;stroke:#FFFFFF;stroke-width:0.5901;}
	.st3{fill:#A9A9A9;stroke:#FFFFFF;}
	.st4{fill:#FAFAFA;}
	.st5{fill:#636363;}
</style>
<sodipodi:namedview  bordercolor="#666666" borderopacity="1.0" id="base" inkscape:current-layer="layer1" inkscape:cx="-760" inkscape:cy="674.28571" inkscape:document-units="mm" inkscape:pageopacity="0.0" inkscape:pageshadow="2" inkscape:window-height="1016" inkscape:window-maximized="1" inkscape:window-width="1920" inkscape:window-x="0" inkscape:window-y="27" inkscape:zoom="0.35" pagecolor="#ffffff" showgrid="false">
	</sodipodi:namedview>
<g id="layer1" inkscape:groupmode="layer" inkscape:label="Layer 1">
	<path id="path892" inkscape:connector-curvature="0" class="st0" d="M349.4,31.1c-39.1-0.1-73.6,18.7-117.2,61.3
		c-29,28.4-32.5,61.8-42.2,50.9c-5.9-6.5-15.3-10.3-23.3-9.2c-10.5,1.5-11.8,0.4-6.1-4.9c5.7-5.3,4-9.1-7.6-17.4
		c-17.8-12.7-48.8-21.4-60.9-17.2c-9.5,3.3-12.3,18.4-3.4,18.4c2.9,0,21.8,30.4,41.9,67.5c28.4,52.5,43.4,73.3,67.4,93.6
		c26.5,22.4,93.7,57.8,82.3,22.6c-1.4-6-1.7-12.7-0.8-20l2.2-17.8l4.6,16.5c13.1,47.5,33.9,59.9,101.4,60.3c39.5,0.2,50-1.9,78.1-16
		c43.5-21.8,55.7-36.8,55.7-68.4c6.9-53.6-36.4-70.4-36.4-70.4S522.2,45,349.4,31.1L349.4,31.1z M251.2,319.2
		c-7.2,0.1-11.6,2.4-9.2,9.9c17.3,51.9-36.9,148.3-36.9,153.6c0,17.7,89.8,18.1,111.3,0.5h0c6.2-5.1,15.5-15.7,20.7-23.6
		c8.5-13,12.8-14.3,43.2-13.6c32.9,0.8,34,1.3,40.8,19.8c6.4,17.3,9.4,19.1,33.8,20.7c14.7,1,35.9,0.2,47.2-1.7
		c18.5-3.1,20.1-4.9,16.5-17.9c-2.2-7.9-9.2-24.2-15.6-36.2c-5.7-10.7-26.2-60.2-14.9-79c11.4-18.8-3.2-28.8-3.2-28.8L459,333.4
		c-33.2,13.6-100.2,14-138.4,0.8C312,331.2,260.4,319,251.2,319.2L251.2,319.2z"/>
	<path id="path884" inkscape:connector-curvature="0" class="st1" d="M235,327c-4.8-9.5-7.5-8.7-29.4,9.2
		c-23,18.8-54.2,57.4-50,61.9c4.7,5.1,32,15.6,43.8,16.9c7.1,0.8,18.3,6,22.8,1.9C222.1,417,250.7,353.2,235,327z"/>
	<g id="g958" transform="matrix(0.52577567,0,0,0.47143679,110.89771,127.95293)">
		<path id="path845" inkscape:connector-curvature="0" class="st2" d="M7.2,398.5c10-4,20.3-15.2,25.2-27.4
			c6.5-16.1,5.1-26.7-7.6-57.9c-5.6-13.7-11-28.8-12-33.6c-4-18.9,1-31.1,19.2-47.1c9.3-8.2,12.5-12.3,16-20.6
			c3.9-9.3,4.3-12.3,4.3-27.7c-0.1-15.6-0.6-18.5-5.1-29.7c-5.3-13.3-15.2-28.1-24.7-36.9l-5.9-5.4l-14.6,10
			c-8,5.5-14.9,10.4-15.3,10.8c-0.4,0.5,1.5,2.9,4.2,5.4c7.1,6.5,18.5,24.3,22.9,36c7.4,19.6,3.8,33.8-11.7,46.1
			c-26.3,20.8-26.4,51.1-0.4,97.2c6.2,11.1,10.1,20,11.3,26.5c1.7,8.9,1.6,10.5-1.5,17.9C7.6,371.9-1.9,379.8-11,381
			c-5.5,0.7-7.2,0.1-11.9-4.8c-7-7.2-12.4-21.8-12.6-34.2l-0.2-9.6l-2.1,5.9c-1.1,3.2-2.1,12-2.2,19.5c-0.2,15.4,2.9,24.6,11.2,33.8
			C-20.1,401.2-6.3,403.9,7.2,398.5L7.2,398.5z"/>
		<path id="path841" inkscape:connector-curvature="0" class="st3" d="M-108.1,222c17.7-4,44-13.1,52.6-18.2
			c9.2-5.5,16.2-16.9,24.1-39.5c8.9-25.2,13.4-31.1,35.2-46.1c62.7-43.1,69.4-48.4,87-69c13.7-16.1,26.8-37,34.9-56
			c11.8-27.4,14.5-60.5,7-85.3c-10.9-35.9-30.5-60.3-57.1-71.4c-7.8-3.2-13.3-4.1-26.1-4.2c-18.5-0.1-25,2.5-43.9,17.7
			c-16.5,13.2-19.6,13-38.4-2.4c-24.1-19.8-49.7-21.5-78.6-5.1C-139-141.9-161-99-161-61.1c0,23.2,6.6,46,20.5,70.9
			c13.3,23.9,28.7,40.4,63.9,68.5l17.8,14.2l18.7-10.8c10.3-5.9,19-11.3,19.4-12c0.4-0.7-5.8-6.3-13.7-12.5
			c-33-25.8-59.9-56.6-69-78.9c-5.4-13.2-5.7-14.9-5.6-31.1c0.1-19.2,2.1-26.4,10.3-37.3c6.8-9.1,15.3-13.3,26.9-13.3
			c12.7-0.1,20.8,3.6,34,15.4c19.2,17.2,25,17.3,43.8,0.7c14.3-12.6,21.9-16.2,34.4-16.2c15.7,0,25.9,7.4,33.5,24.4
			c3.5,7.9,4.1,11.3,4.1,26.2c0.1,16.1-0.3,18-5.6,31.1C59.3,10.2,14.6,53.8-35.6,83.4c-20.4,12-31,17-56.9,26.4
			c-16,5.8-22.2,10-36.9,24.8c-7.3,7.4-8,8.7-8.8,17.9c-1.1,12.3-6.3,22.9-15.7,32c-6.3,6.1-6.9,30.1-3,33.1
			C-145.7,226.3-132.4,227.5-108.1,222L-108.1,222z"/>
	</g>
	<path id="path888" inkscape:connector-curvature="0" class="st1" d="M216.7,160.7c0-3,2.7-5.5,6.1-5.5c3.3,0,6.1,2.5,6.1,5.5
		c0,3-2.7,5.5-6.1,5.5C219.4,166.2,216.7,163.7,216.7,160.7z"/>
	<path id="path886" inkscape:connector-curvature="0" class="st1" d="M423.8,479.4c-0.1-1.3-3.3-8.5-7.1-16
		c-5.3-10.4-11.2-13.3-25.1-12.3c-21.3,1.6-36.6,22.7-21.7,29.8C378.6,485,424.1,483.8,423.8,479.4L423.8,479.4z"/>
	<path id="path888-3" inkscape:connector-curvature="0" class="st4" d="M49.2,214.4c0-3,2.7-5.5,6.1-5.5s6.1,2.5,6.1,5.5
		c0,3-2.7,5.5-6.1,5.5C51.9,219.9,49.2,217.5,49.2,214.4z"/>
	<g id="text1150" transform="translate(3.0238105,-3.0238097)">
		<path id="path1698" inkscape:connector-curvature="0" class="st5" d="M106.1,554.4c0-6.6-0.4-9.4-2.4-14.1
			C98.5,528.3,87,521,73.2,521c-18.4,0-32.8,13.4-32.8,30.8c0,18.7,15.4,33.6,34.8,33.6c13.1,0,30.4-6.8,30.4-11.8
			c0-1.6-1.3-2.9-2.7-2.9c-0.7,0-1.3,0.3-2.3,1c-5.8,4.6-16.3,7.8-25.2,7.8c-15.6,0-27.1-9.9-29.1-25.1H106.1z M46.2,548.5
			c2.6-13.2,13-21.6,26.9-21.6s24.6,8.5,26.9,21.6H46.2z"/>
		<path id="path1700" inkscape:connector-curvature="0" class="st5" d="M181,534.9c-6.5-9.6-14.1-14-24.6-14
			c-16.3,0-29.7,13.5-29.7,30.2s13.4,30.4,29.7,30.4c10.4,0,18.1-4.5,24.6-14v18.6c0,9.8-7.8,17.7-17.6,17.7h-16.7
			c-2.6,0-3.9,1-3.9,2.9c0,2,1.3,3,3.9,3h16.4c7.2,0,12.5-2.4,17.6-7.8c4.3-4.6,6.2-9.1,6.2-15v-58.2h7.8c2.6,0,3.9-1,3.9-3
			c0-1.9-1.3-2.9-3.9-2.9H181L181,534.9z M156.8,526.9c13.7,0,24.2,10.7,24.2,24.6c0,13.4-10.8,24.2-24.2,24.2s-24.2-10.8-24.2-24.5
			C132.6,537.7,143.2,526.9,156.8,526.9L156.8,526.9z"/>
		<path id="path1702" inkscape:connector-curvature="0" class="st5" d="M239.7,523H223c-2.4,0-3.9,1.2-3.9,2.9c0,1.9,1.4,3,3.9,3
			h10.8v48.2h-13.8c-2.4,0-3.9,1.2-3.9,2.9c0,1.9,1.4,3,3.9,3h45.5c2.4,0,3.9-1.2,3.9-2.9c0-1.9-1.4-3-3.9-3h-25.8v-31.8
			c15.8-14.5,20.9-17.9,27.4-17.9c3.2,0,6,1.6,9.5,4.9c1,1,1.3,1.2,2.3,1.2c1.7,0,3-1.3,3-3c0-1.3-0.9-2.4-3.3-4.5
			c-3.7-3.2-6.9-4.5-11.1-4.5c-7.3,0-14.4,4-27.8,16.1L239.7,523z"/>
		<path id="path1704" inkscape:connector-curvature="0" class="st5" d="M365.2,554.4c0-6.6-0.4-9.4-2.4-14.1
			c-5.2-12-16.7-19.3-30.5-19.3c-18.4,0-32.8,13.4-32.8,30.8c0,18.7,15.4,33.6,34.8,33.6c13.1,0,30.4-6.8,30.4-11.8
			c0-1.6-1.3-2.9-2.7-2.9c-0.7,0-1.3,0.3-2.3,1c-5.8,4.6-16.3,7.8-25.2,7.8c-15.6,0-27.1-9.9-29.1-25.1H365.2z M305.3,548.5
			c2.6-13.2,13-21.6,26.9-21.6c14,0,24.6,8.5,26.9,21.6H305.3z"/>
		<path id="path1706" inkscape:connector-curvature="0" class="st5" d="M438.8,527.6c-5-4.5-11.5-6.6-19.7-6.6
			c-14.1,0-24.6,6.9-24.6,16.3c0,4.5,2.6,8.8,6.6,11.4c4,2.4,8.1,3.5,18.7,4.6c7.9,0.9,11.8,1.9,15.6,3.9c3.9,2.2,6.3,5.8,6.3,9.1
			c0,7.6-9.5,13.2-22.2,13.2c-12.2,0-22.2-5.3-22.2-12v-1c0-1.9-1.2-3.2-2.9-3.2c-2,0-3,1.3-3,3.9v12c0,2.6,1,3.9,3,3.9
			c1.9,0,2.9-1.3,2.9-3.9v-1.6c6,5.3,13.2,7.8,22.6,7.8c16.3,0,28.2-8.1,28.2-19c0-5-2.7-9.9-7.2-13c-4.6-3-9.9-4.6-18.7-5.6
			c-12.7-1.3-13.5-1.6-16.7-3.6c-3-1.7-4.6-4.2-4.6-6.5c0-6.2,8.1-10.8,18.7-10.8c10.9,0,18.4,4.2,19.2,10.7c0.3,2.3,1.3,3.3,3,3.3
			c1.9,0,2.9-1.3,2.9-3.9V527c0-2.7-1-4-2.9-4s-3,1.6-3,4L438.8,527.6z"/>
		<path id="path1708" inkscape:connector-curvature="0" class="st5" d="M525.2,527.6c-5-4.5-11.5-6.6-19.7-6.6
			c-14.1,0-24.6,6.9-24.6,16.3c0,4.5,2.6,8.8,6.6,11.4c4,2.4,8.1,3.5,18.7,4.6c7.9,0.9,11.8,1.9,15.6,3.9c3.9,2.2,6.3,5.8,6.3,9.1
			c0,7.6-9.5,13.2-22.2,13.2c-12.2,0-22.2-5.3-22.2-12v-1c0-1.9-1.2-3.2-2.9-3.2c-2,0-3,1.3-3,3.9v12c0,2.6,1,3.9,3,3.9
			c1.9,0,2.9-1.3,2.9-3.9v-1.6c6,5.3,13.2,7.8,22.6,7.8c16.3,0,28.2-8.1,28.2-19c0-5-2.7-9.9-7.2-13c-4.6-3-9.9-4.6-18.7-5.6
			c-12.7-1.3-13.5-1.6-16.7-3.6c-3-1.7-4.6-4.2-4.6-6.5c0-6.2,8.1-10.8,18.7-10.8c10.9,0,18.4,4.2,19.2,10.7c0.3,2.3,1.3,3.3,3,3.3
			c1.9,0,2.9-1.3,2.9-3.9V527c0-2.7-1-4-2.9-4s-3,1.6-3,4L525.2,527.6z"/>
	</g>
</g>
<path class="st1" d="M451.2,201c0,0,70.4,11.2,49.1,56.7"/>
</svg>
